<?xml version="1.0" standalone="no"?>
<!--
  -    Copyright 2023 Girish M
  -
  -    Licensed under the Apache License, Version 2.0 (the "License");
  -    you may not use this file except in compliance with the License.
  -    You may obtain a copy of the License at
  -
  -        http://www.apache.org/licenses/LICENSE-2.0
  -
  -    Unless required by applicable law or agreed to in writing, software
  -    distributed under the License is distributed on an "AS IS" BASIS,
  -    WITHOUT WARRANTIES OR CONDITIONS OF ANY KIND, either express or implied.
  -    See the License for the specific language governing permissions and
  -    limitations under the License.
  -->

<!DOCTYPE svg PUBLIC "-//W3C//DTD SVG 20010904//EN"
 "http://www.w3.org/TR/2001/REC-SVG-20010904/DTD/svg10.dtd">
<svg version="1.0" xmlns="http://www.w3.org/2000/svg"
 width="50.000000pt" height="50.000000pt" viewBox="0 0 50.000000 50.000000"
 preserveAspectRatio="xMidYMid meet">

<g transform="translate(0.000000,50.000000) scale(0.100000,-0.100000)"
fill="#000000" stroke="none">
<path d="M0 250 l0 -250 250 0 250 0 0 250 0 250 -250 0 -250 0 0 -250z m394
164 c12 -11 16 -36 16 -94 0 -88 -9 -100 -69 -100 -29 0 -30 -2 -33 -47 -3
-40 -6 -48 -23 -48 -17 0 -20 8 -23 48 -5 70 -22 57 -22 -16 0 -36 -5 -68 -12
-75 -16 -16 -110 -16 -126 0 -7 7 -12 41 -12 84 0 95 9 104 101 104 l69 0 0
64 c0 56 3 67 22 80 29 21 92 20 112 0z"/>
<path d="M310 324 c0 -54 0 -55 28 -52 21 2 28 9 30 32 6 50 -6 76 -33 76 -24
0 -25 -3 -25 -56z"/>
<path d="M142 168 c3 -45 6 -53 23 -53 17 0 20 8 23 53 3 50 2 52 -23 52 -25
0 -26 -2 -23 -52z"/>
</g>
</svg>
